<mxfile host="Electron" modified="2023-12-21T10:01:01.889Z" agent="Mozilla/5.0 (Windows NT 10.0; Win64; x64) AppleWebKit/537.36 (KHTML, like Gecko) draw.io/22.1.2 Chrome/114.0.5735.289 Electron/25.9.4 Safari/537.36" etag="dfsiQRrDLHtDiqUBdFs9" version="22.1.2" type="device">
  <diagram name="Page-1" id="2c0d36ab-eaac-3732-788b-9136903baeff">
    <mxGraphModel dx="2590" dy="1545" grid="1" gridSize="10" guides="1" tooltips="1" connect="1" arrows="1" fold="1" page="1" pageScale="1.5" pageWidth="1169" pageHeight="827" background="none" math="0" shadow="0">
      <root>
        <mxCell id="0" />
        <mxCell id="1" parent="0" />
        <mxCell id="122" value="" style="fillColor=#e1d5e7;opacity=30;strokeColor=#9673a6;" parent="1" vertex="1">
          <mxGeometry x="20" y="195.5" width="1713" height="100" as="geometry" />
        </mxCell>
        <mxCell id="DDek9axI_8rL1BTBqIgP-135" style="edgeStyle=orthogonalEdgeStyle;rounded=0;orthogonalLoop=1;jettySize=auto;html=1;exitX=0.5;exitY=1;exitDx=0;exitDy=0;entryX=0.5;entryY=0;entryDx=0;entryDy=0;" parent="1" source="2" target="DDek9axI_8rL1BTBqIgP-134" edge="1">
          <mxGeometry relative="1" as="geometry" />
        </mxCell>
        <mxCell id="DDek9axI_8rL1BTBqIgP-153" style="edgeStyle=orthogonalEdgeStyle;rounded=0;orthogonalLoop=1;jettySize=auto;html=1;exitX=0.5;exitY=1;exitDx=0;exitDy=0;entryX=0.5;entryY=0;entryDx=0;entryDy=0;" parent="1" source="2" target="10" edge="1">
          <mxGeometry relative="1" as="geometry" />
        </mxCell>
        <mxCell id="kua9X1TVhC1SGR1LCsgN-179" style="edgeStyle=orthogonalEdgeStyle;rounded=0;orthogonalLoop=1;jettySize=auto;html=1;exitX=0.5;exitY=1;exitDx=0;exitDy=0;entryX=0.5;entryY=0;entryDx=0;entryDy=0;" edge="1" parent="1" source="2" target="kua9X1TVhC1SGR1LCsgN-164">
          <mxGeometry relative="1" as="geometry" />
        </mxCell>
        <mxCell id="2" value="DataModelling" style="rounded=1;fillColor=#bac8d3;strokeColor=#23445d;fontStyle=1;fontFamily=Tahoma;fontSize=20;" parent="1" vertex="1">
          <mxGeometry x="710" y="20" width="257" height="105.5" as="geometry" />
        </mxCell>
        <mxCell id="DDek9axI_8rL1BTBqIgP-170" style="edgeStyle=orthogonalEdgeStyle;rounded=0;orthogonalLoop=1;jettySize=auto;html=1;exitX=0.5;exitY=1;exitDx=0;exitDy=0;" parent="1" source="4" edge="1">
          <mxGeometry relative="1" as="geometry">
            <mxPoint x="1584" y="320" as="targetPoint" />
          </mxGeometry>
        </mxCell>
        <mxCell id="4" value="Directions" style="rounded=1;fillColor=#92b0d9;strokeColor=#6c8ebf;fontStyle=1;fontFamily=Tahoma;fontSize=14;" parent="1" vertex="1">
          <mxGeometry x="1453" y="205.5" width="262" height="80" as="geometry" />
        </mxCell>
        <mxCell id="9" value="" style="edgeStyle=elbowEdgeStyle;elbow=vertical;strokeWidth=2;rounded=0" parent="1" source="2" target="4" edge="1">
          <mxGeometry x="337" y="215.5" width="100" height="100" as="geometry">
            <mxPoint x="550" y="185.5" as="sourcePoint" />
            <mxPoint x="650" y="85.5" as="targetPoint" />
          </mxGeometry>
        </mxCell>
        <mxCell id="DDek9axI_8rL1BTBqIgP-154" style="edgeStyle=orthogonalEdgeStyle;rounded=0;orthogonalLoop=1;jettySize=auto;html=1;exitX=0.5;exitY=1;exitDx=0;exitDy=0;entryX=0.5;entryY=0;entryDx=0;entryDy=0;fillColor=#ffe6cc;strokeColor=#d79b00;" parent="1" source="10" target="41" edge="1">
          <mxGeometry relative="1" as="geometry" />
        </mxCell>
        <mxCell id="10" value="Constraints" style="rounded=1;fillColor=#eac69e;strokeColor=#d79b00;fontStyle=1;fontFamily=Tahoma;fontSize=14" parent="1" vertex="1">
          <mxGeometry x="1173.5" y="205.5" width="190" height="80" as="geometry" />
        </mxCell>
        <mxCell id="DDek9axI_8rL1BTBqIgP-151" style="edgeStyle=orthogonalEdgeStyle;rounded=0;orthogonalLoop=1;jettySize=auto;html=1;exitX=0.5;exitY=1;exitDx=0;exitDy=0;entryX=0.5;entryY=0;entryDx=0;entryDy=0;fillColor=#e1d5e7;strokeColor=#9673a6;" parent="1" source="12" target="DDek9axI_8rL1BTBqIgP-147" edge="1">
          <mxGeometry relative="1" as="geometry" />
        </mxCell>
        <mxCell id="12" value="Relationships" style="rounded=1;fillColor=#c5a3d7;strokeColor=#9673a6;fontStyle=1;fontFamily=Tahoma;fontSize=14" parent="1" vertex="1">
          <mxGeometry x="843" y="205.5" width="230" height="80" as="geometry" />
        </mxCell>
        <mxCell id="13" value="Diagrams" style="rounded=1;fillColor=#dfadaa;strokeColor=#b85450;fontStyle=1;fontFamily=Tahoma;fontSize=14" parent="1" vertex="1">
          <mxGeometry x="320" y="205.5" width="190" height="80" as="geometry" />
        </mxCell>
        <mxCell id="DDek9axI_8rL1BTBqIgP-130" style="edgeStyle=orthogonalEdgeStyle;rounded=0;orthogonalLoop=1;jettySize=auto;html=1;exitX=0.5;exitY=1;exitDx=0;exitDy=0;entryX=0.5;entryY=0;entryDx=0;entryDy=0;" parent="1" source="16" target="DDek9axI_8rL1BTBqIgP-127" edge="1">
          <mxGeometry relative="1" as="geometry" />
        </mxCell>
        <mxCell id="16" value="Entity-Relationship &#xa;Diagrams (ERDs)" style="rounded=1;fillColor=#f8cecc;strokeColor=#b85450;fontStyle=1;fontFamily=Tahoma;fontSize=12;" parent="1" vertex="1">
          <mxGeometry x="320" y="325.5" width="183" height="60" as="geometry" />
        </mxCell>
        <mxCell id="DDek9axI_8rL1BTBqIgP-158" style="edgeStyle=orthogonalEdgeStyle;rounded=0;orthogonalLoop=1;jettySize=auto;html=1;exitX=0.5;exitY=1;exitDx=0;exitDy=0;entryX=0.5;entryY=0;entryDx=0;entryDy=0;fillColor=#ffe6cc;strokeColor=#d79b00;" parent="1" source="41" target="42" edge="1">
          <mxGeometry relative="1" as="geometry" />
        </mxCell>
        <mxCell id="41" value="Primary Key Constraint" style="rounded=1;fillColor=#ffe6cc;strokeColor=#d79b00;fontStyle=1;fontFamily=Tahoma;fontSize=14" parent="1" vertex="1">
          <mxGeometry x="1173.5" y="325.5" width="190" height="60" as="geometry" />
        </mxCell>
        <mxCell id="42" value="Unique Constraint" style="rounded=1;fillColor=#ffe6cc;strokeColor=#d79b00;fontStyle=1;fontFamily=Tahoma;fontSize=14" parent="1" vertex="1">
          <mxGeometry x="1173.5" y="415.5" width="190" height="60" as="geometry" />
        </mxCell>
        <mxCell id="59" value="" style="edgeStyle=elbowEdgeStyle;elbow=vertical;strokeWidth=2;rounded=0" parent="1" source="2" target="12" edge="1">
          <mxGeometry x="347" y="225.5" width="100" height="100" as="geometry">
            <mxPoint x="1075" y="145.5" as="sourcePoint" />
            <mxPoint x="1679.9999999999998" y="215.5" as="targetPoint" />
          </mxGeometry>
        </mxCell>
        <mxCell id="61" value="" style="edgeStyle=elbowEdgeStyle;elbow=vertical;strokeWidth=2;rounded=0" parent="1" source="2" target="13" edge="1">
          <mxGeometry x="-23" y="135.5" width="100" height="100" as="geometry">
            <mxPoint x="190" y="105.5" as="sourcePoint" />
            <mxPoint x="290" y="5.5" as="targetPoint" />
          </mxGeometry>
        </mxCell>
        <mxCell id="64" value="" style="edgeStyle=elbowEdgeStyle;elbow=horizontal;strokeWidth=2;rounded=0" parent="1" source="13" target="16" edge="1">
          <mxGeometry x="-23" y="135.5" width="100" height="100" as="geometry">
            <mxPoint x="190" y="105.5" as="sourcePoint" />
            <mxPoint x="290" y="5.5" as="targetPoint" />
            <Array as="points">
              <mxPoint x="415" y="305.5" />
            </Array>
          </mxGeometry>
        </mxCell>
        <mxCell id="DDek9axI_8rL1BTBqIgP-131" style="edgeStyle=orthogonalEdgeStyle;rounded=0;orthogonalLoop=1;jettySize=auto;html=1;exitX=0.5;exitY=1;exitDx=0;exitDy=0;entryX=0.5;entryY=0;entryDx=0;entryDy=0;" parent="1" source="DDek9axI_8rL1BTBqIgP-127" target="DDek9axI_8rL1BTBqIgP-128" edge="1">
          <mxGeometry relative="1" as="geometry" />
        </mxCell>
        <mxCell id="DDek9axI_8rL1BTBqIgP-127" value="UML Class Diagrams" style="rounded=1;fillColor=#f8cecc;strokeColor=#b85450;fontStyle=1;fontFamily=Tahoma;fontSize=14" parent="1" vertex="1">
          <mxGeometry x="320" y="415.5" width="183" height="60" as="geometry" />
        </mxCell>
        <mxCell id="DDek9axI_8rL1BTBqIgP-133" style="edgeStyle=orthogonalEdgeStyle;rounded=0;orthogonalLoop=1;jettySize=auto;html=1;exitX=0.5;exitY=1;exitDx=0;exitDy=0;entryX=0.5;entryY=0;entryDx=0;entryDy=0;" parent="1" source="DDek9axI_8rL1BTBqIgP-128" target="DDek9axI_8rL1BTBqIgP-129" edge="1">
          <mxGeometry relative="1" as="geometry" />
        </mxCell>
        <mxCell id="DDek9axI_8rL1BTBqIgP-128" value="Data Flow Diagrams" style="rounded=1;fillColor=#f8cecc;strokeColor=#b85450;fontStyle=1;fontFamily=Tahoma;fontSize=14" parent="1" vertex="1">
          <mxGeometry x="320" y="505.5" width="183" height="60" as="geometry" />
        </mxCell>
        <mxCell id="DDek9axI_8rL1BTBqIgP-129" value="Hierarchical Diagrams" style="rounded=1;fillColor=#f8cecc;strokeColor=#b85450;fontStyle=1;fontFamily=Tahoma;fontSize=14" parent="1" vertex="1">
          <mxGeometry x="320" y="595.5" width="183" height="60" as="geometry" />
        </mxCell>
        <mxCell id="DDek9axI_8rL1BTBqIgP-142" style="edgeStyle=orthogonalEdgeStyle;rounded=0;orthogonalLoop=1;jettySize=auto;html=1;exitX=0.5;exitY=1;exitDx=0;exitDy=0;fillColor=#d5e8d4;strokeColor=#82b366;" parent="1" source="DDek9axI_8rL1BTBqIgP-134" target="DDek9axI_8rL1BTBqIgP-137" edge="1">
          <mxGeometry relative="1" as="geometry" />
        </mxCell>
        <mxCell id="DDek9axI_8rL1BTBqIgP-134" value="Data StructuresÂ &#xa;(Elements)" style="rounded=1;fillColor=#a3dea0;strokeColor=#82b366;fontStyle=1;fontFamily=Tahoma;fontSize=14;" parent="1" vertex="1">
          <mxGeometry x="572.9999999999999" y="205.5" width="190" height="80" as="geometry" />
        </mxCell>
        <mxCell id="DDek9axI_8rL1BTBqIgP-136" style="edgeStyle=orthogonalEdgeStyle;rounded=0;orthogonalLoop=1;jettySize=auto;html=1;exitX=0.5;exitY=1;exitDx=0;exitDy=0;entryX=0.5;entryY=0;entryDx=0;entryDy=0;fillColor=#d5e8d4;strokeColor=#82b366;" parent="1" source="DDek9axI_8rL1BTBqIgP-137" target="DDek9axI_8rL1BTBqIgP-139" edge="1">
          <mxGeometry relative="1" as="geometry" />
        </mxCell>
        <mxCell id="DDek9axI_8rL1BTBqIgP-137" value="Entity (Table)" style="rounded=1;fillColor=#d5e8d4;strokeColor=#82b366;fontStyle=1;fontFamily=Tahoma;fontSize=14;" parent="1" vertex="1">
          <mxGeometry x="573" y="325.5" width="190" height="60" as="geometry" />
        </mxCell>
        <mxCell id="DDek9axI_8rL1BTBqIgP-138" style="edgeStyle=orthogonalEdgeStyle;rounded=0;orthogonalLoop=1;jettySize=auto;html=1;exitX=0.5;exitY=1;exitDx=0;exitDy=0;entryX=0.5;entryY=0;entryDx=0;entryDy=0;fillColor=#d5e8d4;strokeColor=#82b366;fontSize=12;" parent="1" source="DDek9axI_8rL1BTBqIgP-139" target="DDek9axI_8rL1BTBqIgP-140" edge="1">
          <mxGeometry relative="1" as="geometry" />
        </mxCell>
        <mxCell id="DDek9axI_8rL1BTBqIgP-139" value="Attribute &#xa;(Field or Column)" style="rounded=1;fillColor=#d5e8d4;strokeColor=#82b366;fontStyle=1;fontFamily=Tahoma;fontSize=14;" parent="1" vertex="1">
          <mxGeometry x="573" y="415.5" width="183" height="60" as="geometry" />
        </mxCell>
        <mxCell id="DDek9axI_8rL1BTBqIgP-145" style="edgeStyle=orthogonalEdgeStyle;rounded=0;orthogonalLoop=1;jettySize=auto;html=1;exitX=0.5;exitY=1;exitDx=0;exitDy=0;entryX=0.5;entryY=0;entryDx=0;entryDy=0;fillColor=#d5e8d4;strokeColor=#82b366;fontSize=12;" parent="1" source="DDek9axI_8rL1BTBqIgP-140" target="DDek9axI_8rL1BTBqIgP-143" edge="1">
          <mxGeometry relative="1" as="geometry" />
        </mxCell>
        <mxCell id="DDek9axI_8rL1BTBqIgP-140" value="Primary Key (PK)" style="rounded=1;fillColor=#d5e8d4;strokeColor=#82b366;fontStyle=1;fontFamily=Tahoma;fontSize=12;" parent="1" vertex="1">
          <mxGeometry x="573" y="505.5" width="183" height="60" as="geometry" />
        </mxCell>
        <mxCell id="kua9X1TVhC1SGR1LCsgN-200" style="edgeStyle=orthogonalEdgeStyle;rounded=0;orthogonalLoop=1;jettySize=auto;html=1;exitX=0.5;exitY=1;exitDx=0;exitDy=0;entryX=0.5;entryY=0;entryDx=0;entryDy=0;fillColor=#d5e8d4;strokeColor=#82b366;" edge="1" parent="1" source="DDek9axI_8rL1BTBqIgP-143" target="kua9X1TVhC1SGR1LCsgN-132">
          <mxGeometry relative="1" as="geometry" />
        </mxCell>
        <mxCell id="DDek9axI_8rL1BTBqIgP-143" value="Foreign Key (FK)" style="rounded=1;fillColor=#d5e8d4;strokeColor=#82b366;fontStyle=1;fontFamily=Tahoma;fontSize=12;" parent="1" vertex="1">
          <mxGeometry x="573" y="595.5" width="183" height="60" as="geometry" />
        </mxCell>
        <mxCell id="DDek9axI_8rL1BTBqIgP-152" style="edgeStyle=orthogonalEdgeStyle;rounded=0;orthogonalLoop=1;jettySize=auto;html=1;exitX=0.5;exitY=1;exitDx=0;exitDy=0;entryX=0.5;entryY=0;entryDx=0;entryDy=0;fillColor=#e1d5e7;strokeColor=#9673a6;" parent="1" source="DDek9axI_8rL1BTBqIgP-147" edge="1">
          <mxGeometry relative="1" as="geometry">
            <mxPoint x="958" y="415.5" as="targetPoint" />
          </mxGeometry>
        </mxCell>
        <mxCell id="DDek9axI_8rL1BTBqIgP-147" value="One-to-One (1:1)" style="rounded=1;fillColor=#e1d5e7;strokeColor=#9673a6;fontStyle=1;fontFamily=Tahoma;fontSize=14" parent="1" vertex="1">
          <mxGeometry x="843" y="325.5" width="230" height="60" as="geometry" />
        </mxCell>
        <mxCell id="DDek9axI_8rL1BTBqIgP-171" style="edgeStyle=orthogonalEdgeStyle;rounded=0;orthogonalLoop=1;jettySize=auto;html=1;exitX=0.5;exitY=1;exitDx=0;exitDy=0;entryX=0.5;entryY=0;entryDx=0;entryDy=0;" parent="1" source="DDek9axI_8rL1BTBqIgP-160" target="DDek9axI_8rL1BTBqIgP-161" edge="1">
          <mxGeometry relative="1" as="geometry" />
        </mxCell>
        <mxCell id="DDek9axI_8rL1BTBqIgP-160" value="Crow&#39;s Foot Notation (ERD)" style="rounded=1;fillColor=#dae8fc;strokeColor=#6c8ebf;fontStyle=1;fontFamily=Tahoma;fontSize=14" parent="1" vertex="1">
          <mxGeometry x="1453" y="325.5" width="262" height="64.5" as="geometry" />
        </mxCell>
        <mxCell id="DDek9axI_8rL1BTBqIgP-172" style="edgeStyle=orthogonalEdgeStyle;rounded=0;orthogonalLoop=1;jettySize=auto;html=1;exitX=0.5;exitY=1;exitDx=0;exitDy=0;entryX=0.5;entryY=0;entryDx=0;entryDy=0;" parent="1" source="DDek9axI_8rL1BTBqIgP-161" target="DDek9axI_8rL1BTBqIgP-162" edge="1">
          <mxGeometry relative="1" as="geometry" />
        </mxCell>
        <mxCell id="DDek9axI_8rL1BTBqIgP-161" value="Chen Notation (ERD)" style="rounded=1;fillColor=#dae8fc;strokeColor=#6c8ebf;fontStyle=1;fontFamily=Tahoma;fontSize=14" parent="1" vertex="1">
          <mxGeometry x="1453" y="415.5" width="262" height="64.5" as="geometry" />
        </mxCell>
        <mxCell id="DDek9axI_8rL1BTBqIgP-173" style="edgeStyle=orthogonalEdgeStyle;rounded=0;orthogonalLoop=1;jettySize=auto;html=1;exitX=0.5;exitY=1;exitDx=0;exitDy=0;entryX=0.5;entryY=0;entryDx=0;entryDy=0;" parent="1" source="DDek9axI_8rL1BTBqIgP-162" target="DDek9axI_8rL1BTBqIgP-163" edge="1">
          <mxGeometry relative="1" as="geometry" />
        </mxCell>
        <mxCell id="DDek9axI_8rL1BTBqIgP-162" value="UML Notation (Class Diagram)" style="rounded=1;fillColor=#dae8fc;strokeColor=#6c8ebf;fontStyle=1;fontFamily=Tahoma;fontSize=14" parent="1" vertex="1">
          <mxGeometry x="1453" y="511" width="262" height="64.5" as="geometry" />
        </mxCell>
        <mxCell id="DDek9axI_8rL1BTBqIgP-174" style="edgeStyle=orthogonalEdgeStyle;rounded=0;orthogonalLoop=1;jettySize=auto;html=1;exitX=0.5;exitY=1;exitDx=0;exitDy=0;entryX=0.5;entryY=0;entryDx=0;entryDy=0;" parent="1" source="DDek9axI_8rL1BTBqIgP-163" target="DDek9axI_8rL1BTBqIgP-165" edge="1">
          <mxGeometry relative="1" as="geometry" />
        </mxCell>
        <mxCell id="DDek9axI_8rL1BTBqIgP-163" value="Barker Notation (ERD)" style="rounded=1;fillColor=#dae8fc;strokeColor=#6c8ebf;fontStyle=1;fontFamily=Tahoma;fontSize=14" parent="1" vertex="1">
          <mxGeometry x="1453" y="595.5" width="262" height="64.5" as="geometry" />
        </mxCell>
        <mxCell id="DDek9axI_8rL1BTBqIgP-175" style="edgeStyle=orthogonalEdgeStyle;rounded=0;orthogonalLoop=1;jettySize=auto;html=1;exitX=0.5;exitY=1;exitDx=0;exitDy=0;entryX=0.5;entryY=0;entryDx=0;entryDy=0;" parent="1" source="DDek9axI_8rL1BTBqIgP-165" target="DDek9axI_8rL1BTBqIgP-166" edge="1">
          <mxGeometry relative="1" as="geometry" />
        </mxCell>
        <mxCell id="DDek9axI_8rL1BTBqIgP-165" value="IDEF1X Notation (ERD)" style="rounded=1;fillColor=#dae8fc;strokeColor=#6c8ebf;fontStyle=1;fontFamily=Tahoma;fontSize=14" parent="1" vertex="1">
          <mxGeometry x="1453" y="680" width="262" height="64.5" as="geometry" />
        </mxCell>
        <mxCell id="DDek9axI_8rL1BTBqIgP-166" value="Connectors with Labels" style="rounded=1;fillColor=#dae8fc;strokeColor=#6c8ebf;fontStyle=1;fontFamily=Tahoma;fontSize=14" parent="1" vertex="1">
          <mxGeometry x="1453" y="770" width="262" height="64.5" as="geometry" />
        </mxCell>
        <mxCell id="kua9X1TVhC1SGR1LCsgN-128" style="edgeStyle=orthogonalEdgeStyle;rounded=0;orthogonalLoop=1;jettySize=auto;html=1;exitX=0.5;exitY=1;exitDx=0;exitDy=0;entryX=0.5;entryY=0;entryDx=0;entryDy=0;" edge="1" parent="1" source="kua9X1TVhC1SGR1LCsgN-124" target="kua9X1TVhC1SGR1LCsgN-125">
          <mxGeometry relative="1" as="geometry">
            <mxPoint x="415" y="760" as="targetPoint" />
          </mxGeometry>
        </mxCell>
        <mxCell id="kua9X1TVhC1SGR1LCsgN-124" value="Semantic Data Models" style="rounded=1;fillColor=#f8cecc;strokeColor=#b85450;fontStyle=1;fontFamily=Tahoma;fontSize=14" vertex="1" parent="1">
          <mxGeometry x="323.5" y="680" width="183" height="60" as="geometry" />
        </mxCell>
        <mxCell id="kua9X1TVhC1SGR1LCsgN-131" style="edgeStyle=orthogonalEdgeStyle;rounded=0;orthogonalLoop=1;jettySize=auto;html=1;exitX=0.5;exitY=1;exitDx=0;exitDy=0;entryX=0.5;entryY=0;entryDx=0;entryDy=0;" edge="1" parent="1" source="kua9X1TVhC1SGR1LCsgN-125" target="kua9X1TVhC1SGR1LCsgN-130">
          <mxGeometry relative="1" as="geometry" />
        </mxCell>
        <mxCell id="kua9X1TVhC1SGR1LCsgN-125" value="Dimensional Models &#xa;(i.e Star and Snowflake)" style="rounded=1;fillColor=#f8cecc;strokeColor=#b85450;fontStyle=1;fontFamily=Tahoma;fontSize=14" vertex="1" parent="1">
          <mxGeometry x="327" y="770" width="183" height="60" as="geometry" />
        </mxCell>
        <mxCell id="kua9X1TVhC1SGR1LCsgN-127" style="edgeStyle=orthogonalEdgeStyle;rounded=0;orthogonalLoop=1;jettySize=auto;html=1;exitX=0.5;exitY=1;exitDx=0;exitDy=0;" edge="1" parent="1" source="DDek9axI_8rL1BTBqIgP-129">
          <mxGeometry relative="1" as="geometry">
            <mxPoint x="412" y="680" as="targetPoint" />
          </mxGeometry>
        </mxCell>
        <mxCell id="kua9X1TVhC1SGR1LCsgN-130" value="Conceptual, Logical, and &#xa;Physical Data Models" style="rounded=1;fillColor=#f8cecc;strokeColor=#b85450;fontStyle=1;fontFamily=Tahoma;fontSize=14" vertex="1" parent="1">
          <mxGeometry x="327" y="850" width="183" height="60" as="geometry" />
        </mxCell>
        <mxCell id="kua9X1TVhC1SGR1LCsgN-201" style="edgeStyle=orthogonalEdgeStyle;rounded=0;orthogonalLoop=1;jettySize=auto;html=1;exitX=0.5;exitY=1;exitDx=0;exitDy=0;entryX=0.5;entryY=0;entryDx=0;entryDy=0;fillColor=#d5e8d4;strokeColor=#82b366;" edge="1" parent="1" source="kua9X1TVhC1SGR1LCsgN-132" target="kua9X1TVhC1SGR1LCsgN-133">
          <mxGeometry relative="1" as="geometry" />
        </mxCell>
        <mxCell id="kua9X1TVhC1SGR1LCsgN-132" value="Associative Entity &#xa;(for N-to-N relationships)" style="rounded=1;fillColor=#d5e8d4;strokeColor=#82b366;fontStyle=1;fontFamily=Tahoma;fontSize=12;" vertex="1" parent="1">
          <mxGeometry x="573" y="684.5" width="183" height="60" as="geometry" />
        </mxCell>
        <mxCell id="kua9X1TVhC1SGR1LCsgN-133" value="Indexes" style="rounded=1;fillColor=#d5e8d4;strokeColor=#82b366;fontStyle=1;fontFamily=Tahoma;fontSize=12;" vertex="1" parent="1">
          <mxGeometry x="573" y="770" width="183" height="60" as="geometry" />
        </mxCell>
        <mxCell id="kua9X1TVhC1SGR1LCsgN-134" value="Views" style="rounded=1;fillColor=#d5e8d4;strokeColor=#82b366;fontStyle=1;fontFamily=Tahoma;fontSize=12;" vertex="1" parent="1">
          <mxGeometry x="576.5" y="860" width="183" height="60" as="geometry" />
        </mxCell>
        <mxCell id="kua9X1TVhC1SGR1LCsgN-207" style="edgeStyle=orthogonalEdgeStyle;rounded=0;orthogonalLoop=1;jettySize=auto;html=1;exitX=0.5;exitY=1;exitDx=0;exitDy=0;entryX=0.5;entryY=0;entryDx=0;entryDy=0;fillColor=#d5e8d4;strokeColor=#82b366;" edge="1" parent="1" source="kua9X1TVhC1SGR1LCsgN-136" target="kua9X1TVhC1SGR1LCsgN-137">
          <mxGeometry relative="1" as="geometry" />
        </mxCell>
        <mxCell id="kua9X1TVhC1SGR1LCsgN-136" value="Stored Procedures" style="rounded=1;fillColor=#d5e8d4;strokeColor=#82b366;fontStyle=1;fontFamily=Tahoma;fontSize=12;" vertex="1" parent="1">
          <mxGeometry x="580" y="950" width="183" height="60" as="geometry" />
        </mxCell>
        <mxCell id="kua9X1TVhC1SGR1LCsgN-137" value="Relationship" style="rounded=1;fillColor=#d5e8d4;strokeColor=#82b366;fontStyle=1;fontFamily=Tahoma;fontSize=12;" vertex="1" parent="1">
          <mxGeometry x="580" y="1030" width="183" height="60" as="geometry" />
        </mxCell>
        <mxCell id="kua9X1TVhC1SGR1LCsgN-139" value="One-to-Many (1:N)" style="rounded=1;fillColor=#e1d5e7;strokeColor=#9673a6;fontStyle=1;fontFamily=Tahoma;fontSize=14" vertex="1" parent="1">
          <mxGeometry x="843" y="415.5" width="230" height="60" as="geometry" />
        </mxCell>
        <mxCell id="kua9X1TVhC1SGR1LCsgN-141" style="edgeStyle=orthogonalEdgeStyle;rounded=0;orthogonalLoop=1;jettySize=auto;html=1;exitX=0.5;exitY=1;exitDx=0;exitDy=0;entryX=0.5;entryY=0;entryDx=0;entryDy=0;fillColor=#e1d5e7;strokeColor=#9673a6;" edge="1" parent="1">
          <mxGeometry relative="1" as="geometry">
            <mxPoint x="958" y="475.5" as="sourcePoint" />
            <mxPoint x="958" y="505" as="targetPoint" />
          </mxGeometry>
        </mxCell>
        <mxCell id="kua9X1TVhC1SGR1LCsgN-142" value="Many-to-One (N:1)" style="rounded=1;fillColor=#e1d5e7;strokeColor=#9673a6;fontStyle=1;fontFamily=Tahoma;fontSize=14" vertex="1" parent="1">
          <mxGeometry x="843" y="505" width="230" height="60" as="geometry" />
        </mxCell>
        <mxCell id="kua9X1TVhC1SGR1LCsgN-143" style="edgeStyle=orthogonalEdgeStyle;rounded=0;orthogonalLoop=1;jettySize=auto;html=1;exitX=0.5;exitY=1;exitDx=0;exitDy=0;entryX=0.5;entryY=0;entryDx=0;entryDy=0;fillColor=#e1d5e7;strokeColor=#9673a6;" edge="1" parent="1">
          <mxGeometry relative="1" as="geometry">
            <mxPoint x="958" y="566" as="sourcePoint" />
            <mxPoint x="958" y="595.5" as="targetPoint" />
          </mxGeometry>
        </mxCell>
        <mxCell id="kua9X1TVhC1SGR1LCsgN-144" value="Many-to-Many (N:N)" style="rounded=1;fillColor=#e1d5e7;strokeColor=#9673a6;fontStyle=1;fontFamily=Tahoma;fontSize=14" vertex="1" parent="1">
          <mxGeometry x="843" y="595.5" width="230" height="60" as="geometry" />
        </mxCell>
        <mxCell id="kua9X1TVhC1SGR1LCsgN-145" style="edgeStyle=orthogonalEdgeStyle;rounded=0;orthogonalLoop=1;jettySize=auto;html=1;exitX=0.5;exitY=1;exitDx=0;exitDy=0;entryX=0.5;entryY=0;entryDx=0;entryDy=0;fillColor=#e1d5e7;strokeColor=#9673a6;" edge="1" parent="1">
          <mxGeometry relative="1" as="geometry">
            <mxPoint x="958" y="655" as="sourcePoint" />
            <mxPoint x="958" y="684.5" as="targetPoint" />
          </mxGeometry>
        </mxCell>
        <mxCell id="kua9X1TVhC1SGR1LCsgN-146" value="Recursive (Self-Referencing)" style="rounded=1;fillColor=#e1d5e7;strokeColor=#9673a6;fontStyle=1;fontFamily=Tahoma;fontSize=14" vertex="1" parent="1">
          <mxGeometry x="843" y="684.5" width="230" height="60" as="geometry" />
        </mxCell>
        <mxCell id="kua9X1TVhC1SGR1LCsgN-147" style="edgeStyle=orthogonalEdgeStyle;rounded=0;orthogonalLoop=1;jettySize=auto;html=1;exitX=0.5;exitY=1;exitDx=0;exitDy=0;entryX=0.5;entryY=0;entryDx=0;entryDy=0;fillColor=#ffe6cc;strokeColor=#d79b00;" edge="1" parent="1" target="kua9X1TVhC1SGR1LCsgN-148">
          <mxGeometry relative="1" as="geometry">
            <mxPoint x="1269" y="475.5" as="sourcePoint" />
          </mxGeometry>
        </mxCell>
        <mxCell id="kua9X1TVhC1SGR1LCsgN-148" value="Check Constraint" style="rounded=1;fillColor=#ffe6cc;strokeColor=#d79b00;fontStyle=1;fontFamily=Tahoma;fontSize=14" vertex="1" parent="1">
          <mxGeometry x="1173.5" y="505" width="190" height="60" as="geometry" />
        </mxCell>
        <mxCell id="kua9X1TVhC1SGR1LCsgN-149" style="edgeStyle=orthogonalEdgeStyle;rounded=0;orthogonalLoop=1;jettySize=auto;html=1;exitX=0.5;exitY=1;exitDx=0;exitDy=0;entryX=0.5;entryY=0;entryDx=0;entryDy=0;fillColor=#ffe6cc;strokeColor=#d79b00;" edge="1" parent="1" target="kua9X1TVhC1SGR1LCsgN-150">
          <mxGeometry relative="1" as="geometry">
            <mxPoint x="1269" y="566" as="sourcePoint" />
          </mxGeometry>
        </mxCell>
        <mxCell id="kua9X1TVhC1SGR1LCsgN-150" value="Default Constraint" style="rounded=1;fillColor=#ffe6cc;strokeColor=#d79b00;fontStyle=1;fontFamily=Tahoma;fontSize=14" vertex="1" parent="1">
          <mxGeometry x="1173.5" y="595.5" width="190" height="60" as="geometry" />
        </mxCell>
        <mxCell id="kua9X1TVhC1SGR1LCsgN-151" style="edgeStyle=orthogonalEdgeStyle;rounded=0;orthogonalLoop=1;jettySize=auto;html=1;exitX=0.5;exitY=1;exitDx=0;exitDy=0;entryX=0.5;entryY=0;entryDx=0;entryDy=0;fillColor=#ffe6cc;strokeColor=#d79b00;" edge="1" parent="1" target="kua9X1TVhC1SGR1LCsgN-152">
          <mxGeometry relative="1" as="geometry">
            <mxPoint x="1269" y="650" as="sourcePoint" />
          </mxGeometry>
        </mxCell>
        <mxCell id="kua9X1TVhC1SGR1LCsgN-152" value="Not Null Constraint" style="rounded=1;fillColor=#ffe6cc;strokeColor=#d79b00;fontStyle=1;fontFamily=Tahoma;fontSize=14" vertex="1" parent="1">
          <mxGeometry x="1173.5" y="679.5" width="190" height="60" as="geometry" />
        </mxCell>
        <mxCell id="kua9X1TVhC1SGR1LCsgN-153" style="edgeStyle=orthogonalEdgeStyle;rounded=0;orthogonalLoop=1;jettySize=auto;html=1;exitX=0.5;exitY=1;exitDx=0;exitDy=0;entryX=0.5;entryY=0;entryDx=0;entryDy=0;fillColor=#ffe6cc;strokeColor=#d79b00;" edge="1" parent="1" target="kua9X1TVhC1SGR1LCsgN-154">
          <mxGeometry relative="1" as="geometry">
            <mxPoint x="1269" y="739.5" as="sourcePoint" />
          </mxGeometry>
        </mxCell>
        <mxCell id="kua9X1TVhC1SGR1LCsgN-154" value="Foreign Key Constraint" style="rounded=1;fillColor=#ffe6cc;strokeColor=#d79b00;fontStyle=1;fontFamily=Tahoma;fontSize=14" vertex="1" parent="1">
          <mxGeometry x="1173.5" y="769" width="190" height="60" as="geometry" />
        </mxCell>
        <mxCell id="kua9X1TVhC1SGR1LCsgN-155" style="edgeStyle=orthogonalEdgeStyle;rounded=0;orthogonalLoop=1;jettySize=auto;html=1;exitX=0.5;exitY=1;exitDx=0;exitDy=0;entryX=0.5;entryY=0;entryDx=0;entryDy=0;fillColor=#ffe6cc;strokeColor=#d79b00;" edge="1" parent="1" target="kua9X1TVhC1SGR1LCsgN-156">
          <mxGeometry relative="1" as="geometry">
            <mxPoint x="1269" y="829" as="sourcePoint" />
          </mxGeometry>
        </mxCell>
        <mxCell id="kua9X1TVhC1SGR1LCsgN-156" value="&#xa;  Identity/Auto-Increment&#xa;Â Constraint &#xa;(for generating &#xa;unique values)" style="rounded=1;fillColor=#ffe6cc;strokeColor=#d79b00;fontStyle=1;fontFamily=Tahoma;fontSize=14" vertex="1" parent="1">
          <mxGeometry x="1173.5" y="858.5" width="190" height="91.5" as="geometry" />
        </mxCell>
        <mxCell id="kua9X1TVhC1SGR1LCsgN-159" style="edgeStyle=orthogonalEdgeStyle;rounded=0;orthogonalLoop=1;jettySize=auto;html=1;exitX=0.5;exitY=1;exitDx=0;exitDy=0;entryX=0.5;entryY=0;entryDx=0;entryDy=0;" edge="1" parent="1" target="kua9X1TVhC1SGR1LCsgN-160">
          <mxGeometry relative="1" as="geometry">
            <mxPoint x="1584" y="835.25" as="sourcePoint" />
          </mxGeometry>
        </mxCell>
        <mxCell id="kua9X1TVhC1SGR1LCsgN-160" value="Solid Lines with Arrows (UML)" style="rounded=1;fillColor=#dae8fc;strokeColor=#6c8ebf;fontStyle=1;fontFamily=Tahoma;fontSize=14" vertex="1" parent="1">
          <mxGeometry x="1453" y="860.25" width="262" height="64.5" as="geometry" />
        </mxCell>
        <mxCell id="kua9X1TVhC1SGR1LCsgN-161" style="edgeStyle=orthogonalEdgeStyle;rounded=0;orthogonalLoop=1;jettySize=auto;html=1;exitX=0.5;exitY=1;exitDx=0;exitDy=0;entryX=0.5;entryY=0;entryDx=0;entryDy=0;" edge="1" parent="1" target="kua9X1TVhC1SGR1LCsgN-162">
          <mxGeometry relative="1" as="geometry">
            <mxPoint x="1584" y="924.75" as="sourcePoint" />
          </mxGeometry>
        </mxCell>
        <mxCell id="kua9X1TVhC1SGR1LCsgN-162" value="Dashed Lines (Chen Notation)" style="rounded=1;fillColor=#dae8fc;strokeColor=#6c8ebf;fontStyle=1;fontFamily=Tahoma;fontSize=14" vertex="1" parent="1">
          <mxGeometry x="1453" y="949.75" width="262" height="64.5" as="geometry" />
        </mxCell>
        <mxCell id="kua9X1TVhC1SGR1LCsgN-164" value="Schemas" style="rounded=1;fillColor=#b0e3e6;strokeColor=#0e8088;fontStyle=1;fontFamily=Tahoma;fontSize=14" vertex="1" parent="1">
          <mxGeometry x="30" y="205.5" width="190" height="80" as="geometry" />
        </mxCell>
        <mxCell id="kua9X1TVhC1SGR1LCsgN-166" value="Star Schema" style="rounded=1;fillColor=#8CB5B8;strokeColor=#12A3AD;fontStyle=1;fontFamily=Tahoma;fontSize=12;" vertex="1" parent="1">
          <mxGeometry x="30" y="325.5" width="183" height="60" as="geometry" />
        </mxCell>
        <mxCell id="kua9X1TVhC1SGR1LCsgN-167" value="" style="edgeStyle=elbowEdgeStyle;elbow=horizontal;strokeWidth=2;rounded=0;fillColor=#b0e3e6;strokeColor=#12A3AD;" edge="1" parent="1" source="kua9X1TVhC1SGR1LCsgN-164" target="kua9X1TVhC1SGR1LCsgN-166">
          <mxGeometry x="-23" y="135.5" width="100" height="100" as="geometry">
            <mxPoint x="-100" y="105.5" as="sourcePoint" />
            <mxPoint y="5.5" as="targetPoint" />
            <Array as="points">
              <mxPoint x="125" y="305.5" />
            </Array>
          </mxGeometry>
        </mxCell>
        <mxCell id="kua9X1TVhC1SGR1LCsgN-180" value="Snowflake Schema" style="rounded=1;fillColor=#8CB5B8;strokeColor=#12A3AD;fontStyle=1;fontFamily=Tahoma;fontSize=12;" vertex="1" parent="1">
          <mxGeometry x="30" y="425" width="183" height="60" as="geometry" />
        </mxCell>
        <mxCell id="kua9X1TVhC1SGR1LCsgN-181" value="" style="edgeStyle=elbowEdgeStyle;elbow=horizontal;strokeWidth=2;rounded=0;fillColor=#b0e3e6;strokeColor=#12A3AD;" edge="1" parent="1" target="kua9X1TVhC1SGR1LCsgN-180">
          <mxGeometry x="-23" y="135.5" width="100" height="100" as="geometry">
            <mxPoint x="125" y="385.5" as="sourcePoint" />
            <mxPoint y="105" as="targetPoint" />
            <Array as="points">
              <mxPoint x="125" y="405" />
            </Array>
          </mxGeometry>
        </mxCell>
        <mxCell id="kua9X1TVhC1SGR1LCsgN-183" value="Galaxy Schema" style="rounded=1;fillColor=#8CB5B8;strokeColor=#12A3AD;fontStyle=1;fontFamily=Tahoma;fontSize=12;" vertex="1" parent="1">
          <mxGeometry x="30" y="525.25" width="183" height="60" as="geometry" />
        </mxCell>
        <mxCell id="kua9X1TVhC1SGR1LCsgN-184" value="" style="edgeStyle=elbowEdgeStyle;elbow=horizontal;strokeWidth=2;rounded=0;fillColor=#b0e3e6;strokeColor=#12A3AD;" edge="1" parent="1" target="kua9X1TVhC1SGR1LCsgN-183">
          <mxGeometry x="-23" y="135.5" width="100" height="100" as="geometry">
            <mxPoint x="125" y="485.75" as="sourcePoint" />
            <mxPoint y="205.25" as="targetPoint" />
            <Array as="points">
              <mxPoint x="125" y="505.25" />
            </Array>
          </mxGeometry>
        </mxCell>
        <mxCell id="kua9X1TVhC1SGR1LCsgN-185" value="Fact Constellation Schema" style="rounded=1;fillColor=#8CB5B8;strokeColor=#12A3AD;fontStyle=1;fontFamily=Tahoma;fontSize=12;" vertex="1" parent="1">
          <mxGeometry x="30" y="624.75" width="183" height="60" as="geometry" />
        </mxCell>
        <mxCell id="kua9X1TVhC1SGR1LCsgN-186" value="" style="edgeStyle=elbowEdgeStyle;elbow=horizontal;strokeWidth=2;rounded=0;fillColor=#b0e3e6;strokeColor=#12A3AD;" edge="1" parent="1" target="kua9X1TVhC1SGR1LCsgN-185">
          <mxGeometry x="-23" y="135.5" width="100" height="100" as="geometry">
            <mxPoint x="125" y="585.25" as="sourcePoint" />
            <mxPoint y="304.75" as="targetPoint" />
            <Array as="points">
              <mxPoint x="125" y="604.75" />
            </Array>
          </mxGeometry>
        </mxCell>
        <mxCell id="kua9X1TVhC1SGR1LCsgN-187" value="Bridge Table Schema" style="rounded=1;fillColor=#8CB5B8;strokeColor=#12A3AD;fontStyle=1;fontFamily=Tahoma;fontSize=12;" vertex="1" parent="1">
          <mxGeometry x="30" y="724.25" width="183" height="60" as="geometry" />
        </mxCell>
        <mxCell id="kua9X1TVhC1SGR1LCsgN-188" value="" style="edgeStyle=elbowEdgeStyle;elbow=horizontal;strokeWidth=2;rounded=0;fillColor=#b0e3e6;strokeColor=#12A3AD;" edge="1" parent="1" target="kua9X1TVhC1SGR1LCsgN-187">
          <mxGeometry x="-23" y="135.5" width="100" height="100" as="geometry">
            <mxPoint x="125" y="684.75" as="sourcePoint" />
            <mxPoint y="404.25" as="targetPoint" />
            <Array as="points">
              <mxPoint x="125" y="704.25" />
            </Array>
          </mxGeometry>
        </mxCell>
        <mxCell id="kua9X1TVhC1SGR1LCsgN-189" value="Snowflake Constellation &#xa;Schema" style="rounded=1;fillColor=#8CB5B8;strokeColor=#12A3AD;fontStyle=1;fontFamily=Tahoma;fontSize=12;" vertex="1" parent="1">
          <mxGeometry x="30" y="824.5" width="183" height="60" as="geometry" />
        </mxCell>
        <mxCell id="kua9X1TVhC1SGR1LCsgN-190" value="" style="edgeStyle=elbowEdgeStyle;elbow=horizontal;strokeWidth=2;rounded=0;fillColor=#b0e3e6;strokeColor=#12A3AD;" edge="1" parent="1" target="kua9X1TVhC1SGR1LCsgN-189">
          <mxGeometry x="-23" y="135.5" width="100" height="100" as="geometry">
            <mxPoint x="125" y="785" as="sourcePoint" />
            <mxPoint y="504.5" as="targetPoint" />
            <Array as="points">
              <mxPoint x="125" y="804.5" />
            </Array>
          </mxGeometry>
        </mxCell>
        <mxCell id="kua9X1TVhC1SGR1LCsgN-191" value="Hierarchy-Based Schema" style="rounded=1;fillColor=#8CB5B8;strokeColor=#12A3AD;fontStyle=1;fontFamily=Tahoma;fontSize=12;" vertex="1" parent="1">
          <mxGeometry x="30" y="924" width="183" height="60" as="geometry" />
        </mxCell>
        <mxCell id="kua9X1TVhC1SGR1LCsgN-192" value="" style="edgeStyle=elbowEdgeStyle;elbow=horizontal;strokeWidth=2;rounded=0;fillColor=#b0e3e6;strokeColor=#12A3AD;" edge="1" parent="1" target="kua9X1TVhC1SGR1LCsgN-191">
          <mxGeometry x="-23" y="135.5" width="100" height="100" as="geometry">
            <mxPoint x="125" y="884.5" as="sourcePoint" />
            <mxPoint y="604" as="targetPoint" />
            <Array as="points">
              <mxPoint x="125" y="904" />
            </Array>
          </mxGeometry>
        </mxCell>
        <mxCell id="kua9X1TVhC1SGR1LCsgN-193" value="Data Vault Schema" style="rounded=1;fillColor=#8CB5B8;strokeColor=#12A3AD;fontStyle=1;fontFamily=Tahoma;fontSize=12;" vertex="1" parent="1">
          <mxGeometry x="30" y="1023.5" width="183" height="60" as="geometry" />
        </mxCell>
        <mxCell id="kua9X1TVhC1SGR1LCsgN-194" value="" style="edgeStyle=elbowEdgeStyle;elbow=horizontal;strokeWidth=2;rounded=0;fillColor=#b0e3e6;strokeColor=#12A3AD;" edge="1" parent="1" target="kua9X1TVhC1SGR1LCsgN-193">
          <mxGeometry x="-23" y="135.5" width="100" height="100" as="geometry">
            <mxPoint x="125" y="984" as="sourcePoint" />
            <mxPoint y="703.5" as="targetPoint" />
            <Array as="points">
              <mxPoint x="125" y="1003.5" />
            </Array>
          </mxGeometry>
        </mxCell>
        <mxCell id="kua9X1TVhC1SGR1LCsgN-195" value="Federated Schema" style="rounded=1;fillColor=#8CB5B8;strokeColor=#12A3AD;fontStyle=1;fontFamily=Tahoma;fontSize=12;" vertex="1" parent="1">
          <mxGeometry x="30" y="1123.75" width="183" height="60" as="geometry" />
        </mxCell>
        <mxCell id="kua9X1TVhC1SGR1LCsgN-196" value="" style="edgeStyle=elbowEdgeStyle;elbow=horizontal;strokeWidth=2;rounded=0;fillColor=#b0e3e6;strokeColor=#12A3AD;" edge="1" parent="1" target="kua9X1TVhC1SGR1LCsgN-195">
          <mxGeometry x="-23" y="135.5" width="100" height="100" as="geometry">
            <mxPoint x="125" y="1084.25" as="sourcePoint" />
            <mxPoint y="803.75" as="targetPoint" />
            <Array as="points">
              <mxPoint x="125" y="1103.75" />
            </Array>
          </mxGeometry>
        </mxCell>
        <mxCell id="kua9X1TVhC1SGR1LCsgN-204" style="edgeStyle=orthogonalEdgeStyle;rounded=0;orthogonalLoop=1;jettySize=auto;html=1;exitX=0.5;exitY=1;exitDx=0;exitDy=0;entryX=0.48;entryY=0;entryDx=0;entryDy=0;entryPerimeter=0;fillColor=#d5e8d4;strokeColor=#82b366;" edge="1" parent="1" source="kua9X1TVhC1SGR1LCsgN-133" target="kua9X1TVhC1SGR1LCsgN-134">
          <mxGeometry relative="1" as="geometry" />
        </mxCell>
        <mxCell id="kua9X1TVhC1SGR1LCsgN-205" style="edgeStyle=orthogonalEdgeStyle;rounded=0;orthogonalLoop=1;jettySize=auto;html=1;entryX=0.481;entryY=0.006;entryDx=0;entryDy=0;entryPerimeter=0;fillColor=#d5e8d4;strokeColor=#82b366;" edge="1" parent="1" source="kua9X1TVhC1SGR1LCsgN-134" target="kua9X1TVhC1SGR1LCsgN-136">
          <mxGeometry relative="1" as="geometry" />
        </mxCell>
      </root>
    </mxGraphModel>
  </diagram>
</mxfile>
